<svg width="256" height="256" viewBox="0 0 256 256" fill="none" xmlns="http://www.w3.org/2000/svg">
  <defs>
    <linearGradient id="leafGrad" x1="48" y1="52" x2="200" y2="208" gradientUnits="userSpaceOnUse">
      <stop stop-color="#3FA16D"/>
      <stop offset="1" stop-color="#1E7A4E"/>
    </linearGradient>
  </defs>
  <rect x="8" y="8" width="240" height="240" rx="48" fill="#0F2B46"/>
  <path d="M72 160C72 111.399 111.399 72 160 72H176C176 120.601 136.601 160 88 160H72Z" fill="url(#leafGrad)"/>
  <path d="M88 178C88 132.712 124.712 96 170 96H184C184 141.288 147.288 178 102 178H88Z" fill="#63C08B"/>
  <circle cx="74" cy="78" r="10" fill="#E8B84C"/>
  <circle cx="104" cy="62" r="8" fill="#D47A35"/>
  <circle cx="128" cy="82" r="9" fill="#B8512D"/>
  <circle cx="58" cy="108" r="7" fill="#CC8F4D"/>
  <circle cx="92" cy="102" r="6" fill="#E1A866"/>
  <path d="M86 162L164 84" stroke="#D8F1E4" stroke-width="6" stroke-linecap="round"/>
</svg>
